<?xml version="1.0" standalone="no"?>
<!DOCTYPE svg PUBLIC "-//W3C//DTD SVG 20010904//EN"
 "http://www.w3.org/TR/2001/REC-SVG-20010904/DTD/svg10.dtd">
<svg version="1.0" xmlns="http://www.w3.org/2000/svg"
 width="512.000000pt" height="512.000000pt" viewBox="0 0 512.000000 512.000000"
 preserveAspectRatio="xMidYMid meet">
<metadata>
Created by potrace 1.14, written by Peter Selinger 2001-2017
</metadata>
<g transform="translate(0.000000,512.000000) scale(0.100000,-0.100000)"
fill="#000000" stroke="none">
<path d="M2378 5115 c-2 -1 -39 -5 -82 -9 -44 -4 -82 -8 -85 -10 -3 -2 -31 -7
-61 -11 -30 -3 -75 -11 -100 -17 -25 -5 -56 -12 -70 -14 -52 -10 -236 -66
-326 -100 -412 -154 -826 -454 -1084 -784 -19 -25 -37 -47 -40 -50 -7 -7 -45
-61 -105 -150 -176 -260 -312 -589 -374 -905 -40 -200 -46 -267 -45 -515 0
-183 3 -241 19 -345 3 -16 7 -43 9 -60 9 -63 46 -224 74 -320 28 -96 29 -101
12 -120 -51 -59 -69 -152 -44 -234 13 -44 12 -47 -11 -71 -83 -87 -82 -241 2
-331 20 -22 23 -31 14 -47 -38 -71 -12 -200 55 -270 27 -28 44 -57 49 -80 21
-118 130 -204 249 -198 107 5 156 40 252 182 32 46 61 84 66 84 4 0 45 -34 90
-76 360 -328 841 -560 1304 -629 22 -4 50 -8 64 -11 144 -26 530 -26 708 1 75
12 90 14 142 25 30 6 66 13 80 16 193 37 522 170 735 299 545 328 944 839
1134 1452 18 56 34 113 37 128 3 15 11 55 19 89 19 81 24 110 30 176 4 30 9
66 12 80 12 55 10 825 -2 935 -77 664 -454 1247 -1030 1592 -86 51 -267 143
-282 143 -3 0 -19 6 -36 14 -97 44 -318 102 -482 127 -68 10 -887 23 -897 14z"/>
</g>
</svg>
